<svg xmlns="http://www.w3.org/2000/svg" width="51" height="51" viewBox="0 0 51 51" fill="none">
  <path d="M0 2C0 0.89543 0.895431 0 2 0H51V51H2C0.89543 51 0 50.1046 0 49V2Z" fill="black" fill-opacity="0.07"/>
  <path fill-rule="evenodd" clip-rule="evenodd" d="M18.7291 24.4167V21.2917C18.7291 19.4959 19.4425 17.7737 20.7123 16.504C21.9821 15.2342 23.7042 14.5208 25.5 14.5208C27.2957 14.5208 29.0179 15.2342 30.2877 16.504C31.5575 17.7737 32.2708 19.4959 32.2708 21.2917V24.4167H32.7916C34.5176 24.4167 35.9166 25.8157 35.9166 27.5417V34.8333C35.9166 36.5593 34.5176 37.9583 32.7916 37.9583H18.2083C16.4824 37.9583 15.0833 36.5593 15.0833 34.8333V27.5417C15.0833 25.8157 16.4824 24.4167 18.2083 24.4167H18.7291ZM22.922 18.7137C23.6057 18.0299 24.533 17.6458 25.5 17.6458C26.467 17.6458 27.3942 18.0299 28.078 18.7137C28.7617 19.3974 29.1458 20.3247 29.1458 21.2917V24.4167H21.8541V21.2917C21.8541 20.3247 22.2383 19.3974 22.922 18.7137Z" fill="#0F1F3C"/>
</svg>