<svg xmlns="http://www.w3.org/2000/svg" width="51" height="51" viewBox="0 0 51 51" fill="none">
  <path fill-rule="evenodd" clip-rule="evenodd" d="M25.5 25.5C28.2575 25.5 30.5 23.2575 30.5 20.5C30.5 17.7425 28.2575 15.5 25.5 15.5C22.7425 15.5 20.5 17.7425 20.5 20.5C20.5 23.2575 22.7425 25.5 25.5 25.5ZM20.8025 26.3412C19.095 24.9675 18 22.8625 18 20.5C18 16.3575 21.3575 13 25.5 13C29.6425 13 33 16.3575 33 20.5C33 22.8625 31.905 24.9675 30.1975 26.3412C34.7712 28.06 38 32.3062 38 38H35.5C35.5 31.75 31.0137 28 25.5 28C19.9862 28 15.5 31.75 15.5 38H13C13 32.3062 16.2288 28.06 20.8025 26.3412Z" fill="#0F1F3C"/>
  <path d="M0 2C0 0.89543 0.895431 0 2 0H51V51H2C0.89543 51 0 50.1046 0 49V2Z" fill="black" fill-opacity="0.07"/>
</svg>